HIERARCHY
ROOT Hips
{
	OFFSET 53.535801 -6.298005 91.551300
	CHANNELS 6 Xposition Yposition Zposition Xrotation Yrotation Zrotation
	JOINT spine
	{
		OFFSET 0.000000 -0.393702 6.846367
		CHANNELS 3 Xrotation Yrotation Zrotation
		JOINT spine1
		{
			OFFSET 0.000000 -0.000001 9.496208
			CHANNELS 3 Xrotation Yrotation Zrotation
			JOINT spine2
			{
				OFFSET 0.000000 -0.000001 9.099091
				CHANNELS 3 Xrotation Yrotation Zrotation
				JOINT Neck
				{
					OFFSET 0.000000 -1.113784 23.361206
					CHANNELS 3 Xrotation Yrotation Zrotation
					JOINT Head
					{
						OFFSET 0.000000 -0.000001 7.058014
						CHANNELS 3 Xrotation Yrotation Zrotation
						End Site
						{
							OFFSET 0.000000 5.634187 17.084396
						}
					}
				}
				JOINT RightShoulder
				{
					OFFSET -3.831360 0.533490 9.826309
					CHANNELS 3 Xrotation Yrotation Zrotation
					JOINT RightArm
					{
						OFFSET 0.000000 -0.000002 12.888092
						CHANNELS 3 Xrotation Yrotation Zrotation
						JOINT RightArmRoll
						{
							OFFSET 0.000000 -0.000001 6.506165
							CHANNELS 3 Xrotation Yrotation Zrotation
							JOINT RightForeArm
							{
								OFFSET 0.000000 -0.000003 18.950104
								CHANNELS 3 Xrotation Yrotation Zrotation
								JOINT RightForeArmRoll
								{
									OFFSET 0.000000 -0.000001 7.300934
									CHANNELS 3 Xrotation Yrotation Zrotation
									JOINT RightHand
									{
										OFFSET 0.000000 -0.000002 14.651398
										CHANNELS 3 Xrotation Yrotation Zrotation
										End Site
										{
											OFFSET 0.000000 0.000000 0.100006
										}
									}
								}
							}
						}
					}
				}
				JOINT LeftShoulder
				{
					OFFSET 3.831360 0.533490 9.826309
					CHANNELS 3 Xrotation Yrotation Zrotation
					JOINT LeftArm
					{
						OFFSET 0.000000 -0.000002 12.888092
						CHANNELS 3 Xrotation Yrotation Zrotation
						JOINT LeftArmRoll
						{
							OFFSET 0.000000 -0.000001 6.506165
							CHANNELS 3 Xrotation Yrotation Zrotation
							JOINT LeftForeArm
							{
								OFFSET 0.000000 -0.000003 18.950104
								CHANNELS 3 Xrotation Yrotation Zrotation
								JOINT LeftForeArmRoll
								{
									OFFSET 0.000000 -0.000001 7.300919
									CHANNELS 3 Xrotation Yrotation Zrotation
									JOINT LeftHand
									{
										OFFSET 0.000000 -0.000002 14.651398
										CHANNELS 3 Xrotation Yrotation Zrotation
										End Site
										{
											OFFSET 0.000000 0.000000 0.100006
										}
									}
								}
							}
						}
					}
				}
			}
		}
	}
	JOINT RightUpLeg
	{
		OFFSET -6.068371 0.933477 -1.112778
		CHANNELS 3 Xrotation Yrotation Zrotation
		JOINT RightUpLegRoll
		{
			OFFSET 0.000000 -0.000003 17.179596
			CHANNELS 3 Xrotation Yrotation Zrotation
			JOINT RightLeg
			{
				OFFSET 0.000000 0.000003 -21.274300
				CHANNELS 3 Xrotation Yrotation Zrotation
				JOINT RightLegRoll
				{
					OFFSET 0.000000 -0.000003 21.343903
					CHANNELS 3 Xrotation Yrotation Zrotation
					JOINT RightFoot
					{
						OFFSET 0.000000 -0.000003 17.765198
						CHANNELS 3 Xrotation Yrotation Zrotation
						JOINT RightToeBase
						{
							OFFSET 0.000000 -0.000002 14.850792
							CHANNELS 3 Xrotation Yrotation Zrotation
							End Site
							{
								OFFSET 0.006294 0.829003 7.192139
							}
						}
					}
				}
			}
		}
	}
	JOINT LeftUpLeg
	{
		OFFSET 6.068371 0.933477 -1.112778
		CHANNELS 3 Xrotation Yrotation Zrotation
		JOINT LeftUpLegRoll
		{
			OFFSET 0.000000 -0.000003 17.179703
			CHANNELS 3 Xrotation Yrotation Zrotation
			JOINT LeftLeg
			{
				OFFSET 0.000000 -0.000003 21.274200
				CHANNELS 3 Xrotation Yrotation Zrotation
				JOINT LeftLegRoll
				{
					OFFSET 0.000000 -0.000003 21.541199
					CHANNELS 3 Xrotation Yrotation Zrotation
					JOINT LeftFoot
					{
						OFFSET 0.000000 -0.000003 17.567902
						CHANNELS 3 Xrotation Yrotation Zrotation
						JOINT LeftToeBase
						{
							OFFSET 0.000000 -0.000002 14.850800
							CHANNELS 3 Xrotation Yrotation Zrotation
							End Site
							{
								OFFSET -0.028210 0.829003 7.192123
							}
						}
					}
				}
			}
		}
	}
}
MOTION
Frames: 8
Frame Time: 0.041667
53.894005 -5.743131 91.525192 4.837338 2.306305 -2.904695 -4.064046 0.656159 0.044943 -4.110442 1.307130 0.134369 -2.465182 1.306510 0.118695 26.035506 -31.319307 1.124331 7.225813 24.735031 -3.896039 -25.018947 -26.827779 -31.406613 -134.054770 -210.596206 -78.811114 -0.000001 -0.000001 -0.000003 15.449845 10.147118 -1.302019 -0.000008 0.000007 -3.000000 -5.000191 -7.998990 0.000124 -24.832592 -12.766949 36.025587 -125.623448 222.082098 54.687487 0.000001 0.000001 0.000000 19.144674 -23.369064 -1.864229 0.000002 0.000013 3.006160 -5.000242 7.998786 -0.000170 -7.422385 -178.576020 -1.703688 -179.999991 0.000005 -0.893998 175.286027 -1.313546 -0.190305 0.000002 0.000002 0.032219 68.917790 6.889997 2.163693 25.456950 -7.355613 -0.000000 -6.215052 171.917145 -0.879988 -0.000005 -0.000004 -0.932996 -5.843806 1.989495 0.240962 -0.000004 0.000001 -0.091111 69.763989 -6.850892 -2.209665 25.456955 7.355614 -0.000010 
53.888500 -5.744206 91.524010 4.818529 2.296056 -2.899510 -4.064036 0.656260 0.044931 -4.110522 1.307759 0.135811 -2.465262 1.306981 0.120131 25.996110 -31.233635 1.098249 7.289383 24.653571 -3.908701 -24.973076 -26.959940 -31.329241 -134.068404 -210.776141 -78.980968 -0.000001 0.000000 -0.000003 15.469033 10.076355 -1.304975 -0.000007 0.000007 -3.000000 -5.000191 -7.998994 0.000124 -24.772825 -12.752262 35.890496 -125.592439 222.005573 54.739844 0.000001 0.000000 0.000001 19.163026 -23.330176 -1.860938 -0.000002 0.000013 3.006161 -5.000243 7.998785 -0.000169 -7.402562 -178.565051 -1.695662 -179.999991 0.000006 -0.894996 175.287543 -1.315536 -0.190434 0.000002 0.000003 0.032217 68.917790 6.889996 2.163692 25.456948 -7.355613 -0.000000 -6.194957 171.927787 -0.877188 -0.000005 -0.000005 -0.933495 -5.837695 1.987438 0.240894 -0.000004 0.000001 -0.091096 69.757309 -6.850860 -2.209672 25.456952 7.355615 -0.000010 
53.879704 -5.742359 91.521294 4.799249 2.286365 -2.894319 -4.063876 0.656189 0.044937 -4.110344 1.308008 0.137149 -2.465082 1.307090 0.121466 25.962640 -31.148395 1.074883 7.343896 24.575326 -3.918775 -24.926866 -27.077091 -31.252384 -134.072488 -210.938686 -79.140145 0.000000 0.000002 -0.000004 15.486761 10.008666 -1.307373 -0.000007 0.000008 -3.000000 -5.000192 -7.998995 0.000124 -24.712997 -12.736907 35.754968 -125.556280 221.924498 54.792976 0.000001 -0.000000 0.000001 19.178504 -23.290388 -1.858121 0.000000 0.000013 3.006158 -5.000244 7.998788 -0.000169 -7.382518 -178.555078 -1.687794 -179.999991 0.000005 -0.894996 175.288759 -1.316533 -0.190488 0.000002 0.000002 0.032216 68.917777 6.889959 2.163788 25.456950 -7.355615 -0.000000 -6.175436 171.937445 -0.874484 -0.000005 -0.000004 -0.933997 -5.833295 1.985245 0.240830 -0.000004 0.000002 -0.091081 69.751599 -6.850859 -2.209624 25.456952 7.355613 -0.000009 
53.874302 -5.742267 91.524094 4.779505 2.277393 -2.889176 -4.063556 0.655932 0.044959 -4.109902 1.307809 0.138334 -2.464641 1.306811 0.122658 25.937143 -31.064018 1.054991 7.386918 24.501017 -3.925643 -24.880402 -27.175306 -31.176569 -134.064838 -211.081054 -79.283702 -0.000001 -0.000001 -0.000004 15.502859 9.944832 -1.309052 -0.000007 0.000007 -3.000001 -5.000191 -7.998991 0.000124 -24.653336 -12.721044 35.619662 -125.514725 221.839722 54.843639 0.000002 0.000000 0.000000 19.191151 -23.250107 -1.855827 0.000000 0.000014 3.006158 -5.000242 7.998783 -0.000167 -7.362301 -178.546090 -1.680188 -179.999991 0.000005 -0.896006 175.289592 -1.318536 -0.190634 0.000002 0.000002 0.032214 68.917763 6.889923 2.163783 25.456952 -7.355613 0.000000 -6.156622 171.947103 -0.872075 -0.000005 -0.000004 -0.934502 -5.830906 1.982916 0.240770 -0.000004 0.000001 -0.091066 69.747132 -6.850801 -2.209690 25.456955 7.355613 -0.000010 
53.871700 -5.742896 91.523598 4.759312 2.269318 -2.884146 -4.063067 0.655469 0.044992 -4.109192 1.307132 0.139324 -2.463931 1.306073 0.123659 25.921485 -30.981263 1.039460 7.416018 24.431464 -3.928728 -24.834235 -27.250746 -31.102875 -134.043050 -211.200364 -79.409924 -0.000000 0.000002 -0.000003 15.517379 9.885913 -1.309957 -0.000006 0.000007 -3.000000 -5.000192 -7.998993 0.000124 -24.594278 -12.704907 35.485175 -125.467693 221.751886 54.893284 0.000001 0.000000 0.000001 19.201178 -23.209874 -1.853990 0.000001 0.000012 3.006157 -5.000241 7.998783 -0.000169 -7.341956 -178.537088 -1.673071 -179.999991 0.000005 -0.896007 175.290002 -1.320525 -0.189791 0.000002 0.000002 0.032212 68.917647 6.889882 2.163882 25.456950 -7.355614 -0.000001 -6.138673 171.955777 -0.869943 -0.000005 -0.000004 -0.935009 -5.830846 1.980419 0.240712 -0.000004 0.000002 -0.091050 69.743943 -6.850792 -2.209584 25.456952 7.355613 -0.000010 
53.865700 -5.742358 91.523193 4.738672 2.262290 -2.879281 -4.062416 0.654787 0.045033 -4.108219 1.305917 0.140072 -2.462950 1.304835 0.124426 25.917607 -30.900295 1.028773 7.428761 24.367192 -3.927409 -24.788457 -27.299482 -31.031878 -134.004937 -211.293869 -79.513914 -0.000001 0.000001 -0.000004 15.530255 9.832679 -1.309962 -0.000007 0.000007 -2.999999 -5.000192 -7.998993 0.000125 -24.536153 -12.688739 35.351901 -125.414991 221.661878 54.938538 0.000002 0.000000 -0.000000 19.208310 -23.170104 -1.852769 0.000001 0.000014 3.006157 -5.000241 7.998788 -0.000169 -7.321512 -178.530080 -1.666301 -179.999991 0.000005 -0.897004 175.289934 -1.322525 -0.189957 0.000002 0.000002 0.032210 68.917428 6.889869 2.163893 25.456948 -7.355614 0.000000 -6.121784 171.962484 -0.868055 -0.000005 -0.000004 -0.935517 -5.833408 1.977763 0.240658 -0.000005 0.000001 -0.091033 69.742351 -6.850766 -2.209579 25.456955 7.355614 -0.000010 
53.863304 -5.742879 91.522301 4.717487 2.256279 -2.874133 -4.061635 0.653870 0.045156 -4.107086 1.304154 0.140772 -2.461827 1.303117 0.125153 25.924060 -30.821635 1.022325 7.427926 24.307863 -3.922780 -24.742878 -27.323999 -30.963017 -133.951416 -211.362048 -79.599434 -0.000001 -0.000001 -0.000003 15.544346 9.783450 -1.309265 -0.000007 0.000008 -3.000000 -5.000192 -7.998994 0.000124 -24.477491 -12.673145 35.217070 -125.355582 221.566187 54.980567 0.000002 0.000002 0.000000 19.212644 -23.129923 -1.852210 0.000000 0.000012 3.006155 -5.000240 7.998786 -0.000170 -7.300745 -178.524056 -1.659962 -179.999991 0.000006 -0.897004 175.289469 -1.324512 -0.190131 0.000002 0.000002 0.032208 68.917312 6.889828 2.163893 25.456947 -7.355614 -0.000001 -6.106491 171.969219 -0.866411 -0.000005 -0.000005 -0.936036 -5.839511 1.974748 0.240607 -0.000004 0.000001 -0.091017 69.742665 -6.850744 -2.209556 25.456953 7.355614 -0.000010 
53.860607 -5.743030 91.525993 4.695651 2.251068 -2.868301 -4.060742 0.652729 0.045416 -4.105902 1.301921 0.141619 -2.460635 1.300970 0.126035 25.937102 -30.744929 1.018224 7.418356 24.252345 -3.916399 -24.696786 -27.330466 -30.894899 -133.885942 -211.408657 -79.671227 -0.000000 0.000000 -0.000004 15.561778 9.735905 -1.308092 -0.000008 0.000007 -3.000000 -5.000192 -7.998994 0.000124 -24.416880 -12.658626 35.077625 -125.289288 221.461439 55.020647 0.000001 0.000004 0.000000 19.214212 -23.088068 -1.852309 -0.000004 0.000014 3.006158 -5.000241 7.998784 -0.000167 -7.279412 -178.519029 -1.653935 -179.999991 0.000006 -0.898001 175.288745 -1.325505 -0.190230 0.000002 0.000002 0.032206 68.917100 6.889814 2.163903 25.456953 -7.355614 0.000000 -6.093096 171.974000 -0.864548 -0.000005 -0.000004 -0.936577 -5.849506 1.971260 0.240561 -0.000004 0.000001 -0.090999 69.744988 -6.850725 -2.209508 25.456957 7.355613 -0.000010 
